%
M48
M72
T01C0.02400
T02C0.03200
T03C0.03500
T04C0.03937
T05C0.04000
T06C0.04331
T07C0.10000
%
T01
X44500Y26500
X44500Y46500
T02
X29100Y46700
X9100Y46700
X9400Y26600
X29400Y26600
X65600Y20100
X75600Y20100
X85600Y20100
X95600Y20100
X105600Y20100
X115600Y20100
X125600Y20100
X135600Y20100
X145600Y20100
X155600Y20100
X165600Y20100
X175600Y20100
X185600Y20100
X195600Y20100
X195600Y50100
X185600Y50100
X175600Y50100
X165600Y50100
X155600Y50100
X145600Y50100
X135600Y50100
X125600Y50100
X115600Y50100
X105600Y50100
X95600Y50100
X85600Y50100
X75600Y50100
X65600Y50100
X61900Y70100
X75400Y70100
X91100Y70100
X45600Y70100
X32600Y69900
X16500Y70100
X16500Y110100
X32600Y109900
X45600Y110100
X61900Y110100
X75400Y110100
X91100Y110100
X103100Y106300
X113100Y106300
X91000Y121000
X81000Y121000
X91000Y131000
X103100Y133100
X123100Y133100
X120600Y157100
X160600Y157100
X61900Y131300
X61900Y121300
X51900Y121300
X32500Y121600
X22500Y121600
X32500Y131600
T03
X170000Y123600
X180000Y123600
X190000Y123600
T04
X180200Y159100
X170200Y159100
X64500Y154800
X54500Y154800
X44500Y154800
X34500Y154800
T05
X129100Y81100
X139100Y81100
X149100Y81100
X159100Y81100
X169100Y81100
X179100Y81100
X221300Y124400
X231100Y124400
X241100Y124400
X250900Y124400
X260800Y124400
X260900Y24400
X251100Y24300
X241100Y24350
X231300Y24400
X221400Y24400
T06
X109600Y157100
X79600Y157100
T07
X11800Y11100
X10400Y160100
X268800Y157100
X268500Y10000
M30
