G75*
%MOIN*%
%OFA0B0*%
%FSLAX25Y25*%
%IPPOS*%
%LPD*%
%AMOC8*
5,1,8,0,0,1.08239X$1,22.5*
%
%ADD10C,0.06600*%
%ADD11C,0.05200*%
%ADD12C,0.06000*%
%ADD13C,0.05937*%
%ADD14R,0.02200X0.07800*%
%ADD15C,0.05200*%
%ADD16C,0.07500*%
%ADD17C,0.05500*%
%ADD18C,0.06693*%
%ADD19C,0.04400*%
%ADD20C,0.03200*%
D10*
X0221400Y0024400D03*
X0231300Y0024400D03*
X0241100Y0024350D03*
X0251100Y0024300D03*
X0260900Y0024400D03*
X0260800Y0124400D03*
X0250900Y0124400D03*
X0241100Y0124400D03*
X0231100Y0124400D03*
X0221300Y0124400D03*
D11*
X0195600Y0052700D02*
X0195600Y0047500D01*
X0185600Y0047500D02*
X0185600Y0052700D01*
X0175600Y0052700D02*
X0175600Y0047500D01*
X0165600Y0047500D02*
X0165600Y0052700D01*
X0155600Y0052700D02*
X0155600Y0047500D01*
X0145600Y0047500D02*
X0145600Y0052700D01*
X0135600Y0052700D02*
X0135600Y0047500D01*
X0125600Y0047500D02*
X0125600Y0052700D01*
X0115600Y0052700D02*
X0115600Y0047500D01*
X0105600Y0047500D02*
X0105600Y0052700D01*
X0095600Y0052700D02*
X0095600Y0047500D01*
X0085600Y0047500D02*
X0085600Y0052700D01*
X0075600Y0052700D02*
X0075600Y0047500D01*
X0065600Y0047500D02*
X0065600Y0052700D01*
X0065600Y0022700D02*
X0065600Y0017500D01*
X0075600Y0017500D02*
X0075600Y0022700D01*
X0085600Y0022700D02*
X0085600Y0017500D01*
X0095600Y0017500D02*
X0095600Y0022700D01*
X0105600Y0022700D02*
X0105600Y0017500D01*
X0115600Y0017500D02*
X0115600Y0022700D01*
X0125600Y0022700D02*
X0125600Y0017500D01*
X0135600Y0017500D02*
X0135600Y0022700D01*
X0145600Y0022700D02*
X0145600Y0017500D01*
X0155600Y0017500D02*
X0155600Y0022700D01*
X0165600Y0022700D02*
X0165600Y0017500D01*
X0175600Y0017500D02*
X0175600Y0022700D01*
X0185600Y0022700D02*
X0185600Y0017500D01*
X0195600Y0017500D02*
X0195600Y0022700D01*
D12*
X0179100Y0078100D02*
X0179100Y0084100D01*
X0169100Y0084100D02*
X0169100Y0078100D01*
X0159100Y0078100D02*
X0159100Y0084100D01*
X0149100Y0084100D02*
X0149100Y0078100D01*
X0139100Y0078100D02*
X0139100Y0084100D01*
X0129100Y0084100D02*
X0129100Y0078100D01*
D13*
X0064500Y0151831D02*
X0064500Y0157769D01*
X0054500Y0157769D02*
X0054500Y0151831D01*
X0044500Y0151831D02*
X0044500Y0157769D01*
X0034500Y0157769D02*
X0034500Y0151831D01*
X0170200Y0156131D02*
X0170200Y0162069D01*
X0180200Y0162069D02*
X0180200Y0156131D01*
D14*
X0151100Y0125800D03*
X0146100Y0125800D03*
X0141100Y0125800D03*
X0136100Y0125800D03*
X0136100Y0106400D03*
X0141100Y0106400D03*
X0146100Y0106400D03*
X0151100Y0106400D03*
D15*
X0113100Y0106300D03*
X0103100Y0106300D03*
X0091100Y0110100D03*
X0075400Y0110100D03*
X0061900Y0110100D03*
X0045600Y0110100D03*
X0032600Y0109900D03*
X0016500Y0110100D03*
X0022500Y0121600D03*
X0032500Y0121600D03*
X0032500Y0131600D03*
X0051900Y0121300D03*
X0061900Y0121300D03*
X0061900Y0131300D03*
X0081000Y0121000D03*
X0091000Y0121000D03*
X0091000Y0131000D03*
X0120600Y0157100D03*
X0160600Y0157100D03*
X0091100Y0070100D03*
X0075400Y0070100D03*
X0061900Y0070100D03*
X0045600Y0070100D03*
X0032600Y0069900D03*
X0016500Y0070100D03*
X0009100Y0046700D03*
X0029100Y0046700D03*
X0029400Y0026600D03*
X0009400Y0026600D03*
D16*
X0103100Y0133100D03*
X0123100Y0133100D03*
D17*
X0170000Y0126350D02*
X0170000Y0120850D01*
X0180000Y0120850D02*
X0180000Y0126350D01*
X0190000Y0126350D02*
X0190000Y0120850D01*
D18*
X0109600Y0157100D03*
X0079600Y0157100D03*
D19*
X0046700Y0046500D02*
X0042300Y0046500D01*
X0042300Y0026500D02*
X0046700Y0026500D01*
D20*
X0021678Y0007009D02*
X0021673Y0007000D01*
X0258330Y0007000D01*
X0257900Y0008604D01*
X0257900Y0011396D01*
X0258622Y0014091D01*
X0260018Y0016509D01*
X0261991Y0018482D01*
X0263220Y0019191D01*
X0262034Y0018700D01*
X0259766Y0018700D01*
X0257671Y0019568D01*
X0256068Y0021171D01*
X0256021Y0021285D01*
X0255932Y0021071D01*
X0254329Y0019468D01*
X0252234Y0018600D01*
X0249966Y0018600D01*
X0247871Y0019468D01*
X0246268Y0021071D01*
X0246090Y0021501D01*
X0245932Y0021121D01*
X0245140Y0020329D01*
X0245192Y0015015D01*
X0245200Y0014996D01*
X0245200Y0014219D01*
X0245208Y0013444D01*
X0245200Y0013425D01*
X0245200Y0013404D01*
X0244903Y0012687D01*
X0244613Y0011968D01*
X0244599Y0011953D01*
X0244591Y0011934D01*
X0244043Y0011386D01*
X0243499Y0010831D01*
X0243480Y0010823D01*
X0240666Y0008009D01*
X0239196Y0007400D01*
X0148404Y0007400D01*
X0146934Y0008009D01*
X0145809Y0009134D01*
X0142209Y0012734D01*
X0141600Y0014204D01*
X0141600Y0014429D01*
X0141361Y0014668D01*
X0140678Y0016318D01*
X0140672Y0016282D01*
X0140419Y0015504D01*
X0140047Y0014775D01*
X0139566Y0014112D01*
X0138988Y0013534D01*
X0138325Y0013053D01*
X0137596Y0012681D01*
X0136818Y0012428D01*
X0136009Y0012300D01*
X0135600Y0012300D01*
X0135600Y0020100D01*
X0135600Y0020100D01*
X0135600Y0027900D01*
X0136009Y0027900D01*
X0136818Y0027772D01*
X0137596Y0027519D01*
X0138325Y0027147D01*
X0138988Y0026666D01*
X0139566Y0026088D01*
X0140047Y0025425D01*
X0140419Y0024696D01*
X0140672Y0023918D01*
X0140678Y0023882D01*
X0141361Y0025532D01*
X0142768Y0026939D01*
X0144605Y0027700D01*
X0146595Y0027700D01*
X0148432Y0026939D01*
X0149839Y0025532D01*
X0150600Y0023695D01*
X0150600Y0016505D01*
X0150351Y0015905D01*
X0150857Y0015400D01*
X0151058Y0015400D01*
X0150600Y0016505D01*
X0150600Y0023695D01*
X0151361Y0025532D01*
X0151600Y0025771D01*
X0151600Y0029896D01*
X0152209Y0031366D01*
X0156709Y0035866D01*
X0156943Y0036100D01*
X0138804Y0036100D01*
X0137334Y0036709D01*
X0132209Y0041834D01*
X0131600Y0043304D01*
X0131600Y0044429D01*
X0131361Y0044668D01*
X0130678Y0046318D01*
X0130672Y0046282D01*
X0130419Y0045504D01*
X0130047Y0044775D01*
X0129566Y0044112D01*
X0128988Y0043534D01*
X0128325Y0043053D01*
X0127596Y0042681D01*
X0126818Y0042428D01*
X0126009Y0042300D01*
X0125600Y0042300D01*
X0125600Y0050100D01*
X0125600Y0050100D01*
X0125600Y0057900D01*
X0126009Y0057900D01*
X0126818Y0057772D01*
X0127596Y0057519D01*
X0128325Y0057147D01*
X0128988Y0056666D01*
X0129566Y0056088D01*
X0130047Y0055425D01*
X0130419Y0054696D01*
X0130672Y0053918D01*
X0130678Y0053882D01*
X0131361Y0055532D01*
X0132768Y0056939D01*
X0134605Y0057700D01*
X0136595Y0057700D01*
X0138432Y0056939D01*
X0139839Y0055532D01*
X0140600Y0053695D01*
X0140600Y0046505D01*
X0140088Y0045269D01*
X0141257Y0044100D01*
X0141929Y0044100D01*
X0141361Y0044668D01*
X0140600Y0046505D01*
X0140600Y0053695D01*
X0141361Y0055532D01*
X0142768Y0056939D01*
X0144605Y0057700D01*
X0146595Y0057700D01*
X0148432Y0056939D01*
X0149839Y0055532D01*
X0150600Y0053695D01*
X0150600Y0046505D01*
X0149839Y0044668D01*
X0149271Y0044100D01*
X0151929Y0044100D01*
X0151361Y0044668D01*
X0150600Y0046505D01*
X0150600Y0053695D01*
X0151288Y0055355D01*
X0147243Y0059400D01*
X0107604Y0059400D01*
X0106134Y0060009D01*
X0105009Y0061134D01*
X0100043Y0066100D01*
X0095339Y0066100D01*
X0098447Y0062910D01*
X0098991Y0062366D01*
X0099001Y0062341D01*
X0099020Y0062322D01*
X0099305Y0061607D01*
X0099600Y0060896D01*
X0099600Y0060869D01*
X0099610Y0060844D01*
X0099600Y0060074D01*
X0099600Y0055771D01*
X0099839Y0055532D01*
X0100600Y0053695D01*
X0100600Y0046757D01*
X0100600Y0046757D01*
X0100600Y0053695D01*
X0101361Y0055532D01*
X0102768Y0056939D01*
X0104605Y0057700D01*
X0106595Y0057700D01*
X0108432Y0056939D01*
X0109839Y0055532D01*
X0110600Y0053695D01*
X0110600Y0046505D01*
X0111361Y0044668D01*
X0111600Y0044429D01*
X0111600Y0039757D01*
X0106943Y0035100D01*
X0048304Y0035100D01*
X0046834Y0034491D01*
X0043443Y0031100D01*
X0041385Y0031100D01*
X0040009Y0030530D01*
X0032491Y0030580D01*
X0032232Y0030839D01*
X0030395Y0031600D01*
X0028405Y0031600D01*
X0026568Y0030839D01*
X0025161Y0029432D01*
X0024400Y0027595D01*
X0024400Y0025605D01*
X0025161Y0023768D01*
X0026568Y0022361D01*
X0028405Y0021600D01*
X0030395Y0021600D01*
X0032232Y0022361D01*
X0032451Y0022580D01*
X0039863Y0022531D01*
X0041385Y0021900D01*
X0047615Y0021900D01*
X0049306Y0022600D01*
X0050600Y0023894D01*
X0051300Y0025585D01*
X0051300Y0027100D01*
X0063157Y0027100D01*
X0062768Y0026939D01*
X0061361Y0025532D01*
X0060600Y0023695D01*
X0060600Y0016505D01*
X0061361Y0014668D01*
X0062768Y0013261D01*
X0064605Y0012500D01*
X0066595Y0012500D01*
X0068432Y0013261D01*
X0069839Y0014668D01*
X0070600Y0016505D01*
X0071361Y0014668D01*
X0072768Y0013261D01*
X0074605Y0012500D01*
X0076595Y0012500D01*
X0078432Y0013261D01*
X0079839Y0014668D01*
X0080600Y0016505D01*
X0081361Y0014668D01*
X0082768Y0013261D01*
X0084605Y0012500D01*
X0086595Y0012500D01*
X0088432Y0013261D01*
X0089839Y0014668D01*
X0090600Y0016505D01*
X0091361Y0014668D01*
X0092768Y0013261D01*
X0094605Y0012500D01*
X0096595Y0012500D01*
X0098432Y0013261D01*
X0099839Y0014668D01*
X0100600Y0016505D01*
X0101361Y0014668D01*
X0102768Y0013261D01*
X0104605Y0012500D01*
X0106595Y0012500D01*
X0108432Y0013261D01*
X0109839Y0014668D01*
X0110600Y0016505D01*
X0111361Y0014668D01*
X0112768Y0013261D01*
X0114605Y0012500D01*
X0116595Y0012500D01*
X0118432Y0013261D01*
X0119839Y0014668D01*
X0120600Y0016505D01*
X0120600Y0023695D01*
X0119839Y0025532D01*
X0118432Y0026939D01*
X0116595Y0027700D01*
X0114605Y0027700D01*
X0112768Y0026939D01*
X0111361Y0025532D01*
X0110600Y0023695D01*
X0110600Y0016505D01*
X0110600Y0023695D01*
X0109839Y0025532D01*
X0108432Y0026939D01*
X0108043Y0027100D01*
X0109396Y0027100D01*
X0110866Y0027709D01*
X0117866Y0034709D01*
X0118991Y0035834D01*
X0119600Y0037304D01*
X0119600Y0044429D01*
X0119839Y0044668D01*
X0120522Y0046318D01*
X0120528Y0046282D01*
X0120781Y0045504D01*
X0121153Y0044775D01*
X0121634Y0044112D01*
X0122212Y0043534D01*
X0122875Y0043053D01*
X0123604Y0042681D01*
X0124382Y0042428D01*
X0125191Y0042300D01*
X0125600Y0042300D01*
X0125600Y0050100D01*
X0125600Y0050100D01*
X0125600Y0057900D01*
X0125191Y0057900D01*
X0124382Y0057772D01*
X0123604Y0057519D01*
X0122875Y0057147D01*
X0122212Y0056666D01*
X0121634Y0056088D01*
X0121153Y0055425D01*
X0120781Y0054696D01*
X0120528Y0053918D01*
X0120522Y0053882D01*
X0119839Y0055532D01*
X0118432Y0056939D01*
X0116595Y0057700D01*
X0114605Y0057700D01*
X0112768Y0056939D01*
X0111361Y0055532D01*
X0110600Y0053695D01*
X0110600Y0046505D01*
X0109839Y0044668D01*
X0108432Y0043261D01*
X0108408Y0043251D01*
X0104491Y0039334D01*
X0103366Y0038209D01*
X0101896Y0037600D01*
X0048604Y0037600D01*
X0047134Y0038209D01*
X0043443Y0041900D01*
X0041385Y0041900D01*
X0039790Y0042561D01*
X0032131Y0042660D01*
X0031932Y0042461D01*
X0030095Y0041700D01*
X0028105Y0041700D01*
X0026268Y0042461D01*
X0024861Y0043868D01*
X0024100Y0045705D01*
X0024100Y0047695D01*
X0024861Y0049532D01*
X0026268Y0050939D01*
X0028105Y0051700D01*
X0030095Y0051700D01*
X0031932Y0050939D01*
X0032211Y0050660D01*
X0040076Y0050558D01*
X0041385Y0051100D01*
X0047615Y0051100D01*
X0049306Y0050400D01*
X0050600Y0049106D01*
X0051300Y0047415D01*
X0051300Y0045600D01*
X0060975Y0045600D01*
X0060600Y0046505D01*
X0060600Y0053695D01*
X0060975Y0054600D01*
X0036704Y0054600D01*
X0035234Y0055209D01*
X0034109Y0056334D01*
X0030211Y0060232D01*
X0030181Y0060245D01*
X0029649Y0060794D01*
X0029109Y0061334D01*
X0029096Y0061365D01*
X0029073Y0061388D01*
X0028792Y0062098D01*
X0028500Y0062804D01*
X0028500Y0062837D01*
X0028488Y0062868D01*
X0028500Y0063631D01*
X0028500Y0064396D01*
X0028513Y0064426D01*
X0028552Y0066877D01*
X0028361Y0067068D01*
X0027600Y0068905D01*
X0027600Y0070895D01*
X0028361Y0072732D01*
X0029768Y0074139D01*
X0031605Y0074900D01*
X0033595Y0074900D01*
X0035432Y0074139D01*
X0036839Y0072732D01*
X0037600Y0070895D01*
X0037600Y0068905D01*
X0036839Y0067068D01*
X0036551Y0066780D01*
X0036526Y0065230D01*
X0039157Y0062600D01*
X0061943Y0062600D01*
X0060160Y0064383D01*
X0059945Y0064504D01*
X0059602Y0064941D01*
X0059209Y0065334D01*
X0059115Y0065562D01*
X0058963Y0065755D01*
X0058881Y0066048D01*
X0057661Y0067268D01*
X0056900Y0069105D01*
X0056900Y0071095D01*
X0057661Y0072932D01*
X0059068Y0074339D01*
X0060905Y0075100D01*
X0062895Y0075100D01*
X0064732Y0074339D01*
X0066139Y0072932D01*
X0066900Y0071095D01*
X0066900Y0069105D01*
X0066856Y0069000D01*
X0067763Y0068094D01*
X0070592Y0068083D01*
X0070581Y0068104D01*
X0070328Y0068882D01*
X0070200Y0069691D01*
X0070200Y0070100D01*
X0075400Y0070100D01*
X0075400Y0070100D01*
X0075400Y0075300D01*
X0075809Y0075300D01*
X0076618Y0075172D01*
X0077396Y0074919D01*
X0078125Y0074547D01*
X0078788Y0074066D01*
X0079366Y0073488D01*
X0079847Y0072825D01*
X0080219Y0072096D01*
X0080472Y0071318D01*
X0080600Y0070509D01*
X0080600Y0070100D01*
X0075400Y0070100D01*
X0075400Y0070100D01*
X0075400Y0070100D01*
X0075400Y0075300D01*
X0074991Y0075300D01*
X0074182Y0075172D01*
X0073404Y0074919D01*
X0072675Y0074547D01*
X0072012Y0074066D01*
X0071434Y0073488D01*
X0070953Y0072825D01*
X0070581Y0072096D01*
X0070328Y0071318D01*
X0070200Y0070509D01*
X0070200Y0070100D01*
X0075400Y0070100D01*
X0080600Y0070100D01*
X0080600Y0069691D01*
X0080472Y0068882D01*
X0080219Y0068104D01*
X0080189Y0068045D01*
X0086549Y0068020D01*
X0086100Y0069105D01*
X0086100Y0071095D01*
X0086861Y0072932D01*
X0088268Y0074339D01*
X0090105Y0075100D01*
X0092095Y0075100D01*
X0093932Y0074339D01*
X0094171Y0074100D01*
X0102496Y0074100D01*
X0103966Y0073491D01*
X0110057Y0067400D01*
X0138243Y0067400D01*
X0135709Y0069934D01*
X0135100Y0071404D01*
X0135100Y0074463D01*
X0134522Y0075041D01*
X0134100Y0076060D01*
X0133678Y0075041D01*
X0132159Y0073522D01*
X0130174Y0072700D01*
X0128026Y0072700D01*
X0126041Y0073522D01*
X0124522Y0075041D01*
X0123700Y0077026D01*
X0123700Y0085174D01*
X0124522Y0087159D01*
X0126041Y0088678D01*
X0128026Y0089500D01*
X0130174Y0089500D01*
X0132159Y0088678D01*
X0133678Y0087159D01*
X0134100Y0086140D01*
X0134522Y0087159D01*
X0136041Y0088678D01*
X0138026Y0089500D01*
X0140174Y0089500D01*
X0142159Y0088678D01*
X0143678Y0087159D01*
X0144100Y0086140D01*
X0144522Y0087159D01*
X0146041Y0088678D01*
X0148026Y0089500D01*
X0150174Y0089500D01*
X0152159Y0088678D01*
X0153678Y0087159D01*
X0153990Y0086406D01*
X0154310Y0087035D01*
X0154829Y0087748D01*
X0155452Y0088371D01*
X0156165Y0088890D01*
X0156950Y0089290D01*
X0157789Y0089562D01*
X0158659Y0089700D01*
X0159100Y0089700D01*
X0159100Y0081100D01*
X0159100Y0081100D01*
X0159100Y0089700D01*
X0159541Y0089700D01*
X0160411Y0089562D01*
X0161250Y0089290D01*
X0162035Y0088890D01*
X0162748Y0088371D01*
X0163371Y0087748D01*
X0163890Y0087035D01*
X0164210Y0086406D01*
X0164522Y0087159D01*
X0165542Y0088179D01*
X0165696Y0090590D01*
X0165400Y0091304D01*
X0165400Y0109100D01*
X0164467Y0109100D01*
X0164191Y0108434D01*
X0163066Y0107309D01*
X0158766Y0103009D01*
X0157296Y0102400D01*
X0154600Y0102400D01*
X0154600Y0102023D01*
X0154235Y0101141D01*
X0153559Y0100465D01*
X0152677Y0100100D01*
X0149523Y0100100D01*
X0148641Y0100465D01*
X0148600Y0100506D01*
X0148559Y0100465D01*
X0147677Y0100100D01*
X0144523Y0100100D01*
X0143641Y0100465D01*
X0143600Y0100506D01*
X0143559Y0100465D01*
X0142677Y0100100D01*
X0139523Y0100100D01*
X0138641Y0100465D01*
X0138600Y0100506D01*
X0138559Y0100465D01*
X0137677Y0100100D01*
X0134523Y0100100D01*
X0133641Y0100465D01*
X0132965Y0101141D01*
X0132600Y0102023D01*
X0132600Y0102400D01*
X0116271Y0102400D01*
X0115932Y0102061D01*
X0114095Y0101300D01*
X0112105Y0101300D01*
X0110268Y0102061D01*
X0108861Y0103468D01*
X0108100Y0105305D01*
X0108100Y0107295D01*
X0108861Y0109132D01*
X0110268Y0110539D01*
X0112105Y0111300D01*
X0114095Y0111300D01*
X0115932Y0110539D01*
X0116071Y0110400D01*
X0132600Y0110400D01*
X0132600Y0110777D01*
X0132965Y0111659D01*
X0133406Y0112100D01*
X0107100Y0112100D01*
X0107100Y0109371D01*
X0107339Y0109132D01*
X0108100Y0107295D01*
X0108100Y0105305D01*
X0107339Y0103468D01*
X0105932Y0102061D01*
X0104095Y0101300D01*
X0102105Y0101300D01*
X0100268Y0102061D01*
X0098861Y0103468D01*
X0098100Y0105305D01*
X0098100Y0107295D01*
X0098861Y0109132D01*
X0099100Y0109371D01*
X0099100Y0128403D01*
X0097886Y0129616D01*
X0096950Y0131877D01*
X0096950Y0134323D01*
X0097886Y0136584D01*
X0099100Y0137797D01*
X0099100Y0143943D01*
X0096943Y0146100D01*
X0090157Y0146100D01*
X0090391Y0145866D01*
X0094391Y0141866D01*
X0095000Y0140396D01*
X0095000Y0134071D01*
X0095239Y0133832D01*
X0096000Y0131995D01*
X0096000Y0130005D01*
X0095239Y0128168D01*
X0093832Y0126761D01*
X0091995Y0126000D01*
X0090005Y0126000D01*
X0088168Y0125239D01*
X0086761Y0123832D01*
X0086000Y0121995D01*
X0086000Y0120005D01*
X0086761Y0118168D01*
X0087000Y0117929D01*
X0087000Y0113071D01*
X0086861Y0112932D01*
X0086100Y0111095D01*
X0086100Y0109105D01*
X0086861Y0107268D01*
X0088268Y0105861D01*
X0090105Y0105100D01*
X0092095Y0105100D01*
X0093932Y0105861D01*
X0095339Y0107268D01*
X0096100Y0109105D01*
X0096100Y0111095D01*
X0095339Y0112932D01*
X0095000Y0113271D01*
X0095000Y0117929D01*
X0095239Y0118168D01*
X0096000Y0120005D01*
X0096000Y0121995D01*
X0095239Y0123832D01*
X0093832Y0125239D01*
X0091995Y0126000D01*
X0090005Y0126000D01*
X0088168Y0126761D01*
X0086761Y0128168D01*
X0086000Y0130005D01*
X0086000Y0131995D01*
X0086761Y0133832D01*
X0087000Y0134071D01*
X0087000Y0137943D01*
X0085343Y0139600D01*
X0067804Y0139600D01*
X0066334Y0140209D01*
X0061791Y0144752D01*
X0061241Y0145287D01*
X0061229Y0145314D01*
X0061209Y0145334D01*
X0060915Y0146044D01*
X0060611Y0146749D01*
X0060611Y0146778D01*
X0060600Y0146804D01*
X0060600Y0147572D01*
X0060592Y0148147D01*
X0059949Y0148790D01*
X0059500Y0149874D01*
X0059051Y0148790D01*
X0058500Y0148239D01*
X0058500Y0135557D01*
X0058793Y0135264D01*
X0059068Y0135539D01*
X0060905Y0136300D01*
X0062895Y0136300D01*
X0064732Y0135539D01*
X0066139Y0134132D01*
X0066900Y0132295D01*
X0066900Y0130305D01*
X0066139Y0128468D01*
X0064732Y0127061D01*
X0062895Y0126300D01*
X0060905Y0126300D01*
X0059068Y0125539D01*
X0057661Y0124132D01*
X0056900Y0122295D01*
X0056139Y0124132D01*
X0054732Y0125539D01*
X0052895Y0126300D01*
X0050905Y0126300D01*
X0049068Y0125539D01*
X0047661Y0124132D01*
X0046900Y0122295D01*
X0046900Y0120305D01*
X0047661Y0118468D01*
X0047839Y0118290D01*
X0047833Y0117990D01*
X0044943Y0115100D01*
X0044605Y0115100D01*
X0042768Y0114339D01*
X0041361Y0112932D01*
X0040600Y0111095D01*
X0040600Y0109105D01*
X0041361Y0107268D01*
X0042768Y0105861D01*
X0044605Y0105100D01*
X0046595Y0105100D01*
X0048432Y0105861D01*
X0049839Y0107268D01*
X0050600Y0109105D01*
X0050600Y0109443D01*
X0054600Y0113443D01*
X0055145Y0113967D01*
X0055162Y0114005D01*
X0055191Y0114034D01*
X0055480Y0114732D01*
X0055783Y0115425D01*
X0055784Y0115466D01*
X0055800Y0115504D01*
X0055800Y0116260D01*
X0055838Y0118167D01*
X0056139Y0118468D01*
X0056900Y0120305D01*
X0056900Y0122295D01*
X0056900Y0120305D01*
X0057661Y0118468D01*
X0057871Y0118258D01*
X0057823Y0113094D01*
X0057661Y0112932D01*
X0056900Y0111095D01*
X0056900Y0109105D01*
X0057661Y0107268D01*
X0059068Y0105861D01*
X0060905Y0105100D01*
X0062895Y0105100D01*
X0064732Y0105861D01*
X0066139Y0107268D01*
X0066900Y0109105D01*
X0066900Y0111095D01*
X0066139Y0112932D01*
X0065825Y0113246D01*
X0065871Y0118200D01*
X0066139Y0118468D01*
X0066900Y0120305D01*
X0066900Y0122295D01*
X0066139Y0124132D01*
X0064732Y0125539D01*
X0062895Y0126300D01*
X0060905Y0126300D01*
X0059068Y0127061D01*
X0058929Y0127200D01*
X0056404Y0127200D01*
X0054934Y0127809D01*
X0053809Y0128934D01*
X0051109Y0131634D01*
X0050500Y0133104D01*
X0050500Y0148239D01*
X0049949Y0148790D01*
X0049500Y0149874D01*
X0049051Y0148790D01*
X0048601Y0148341D01*
X0048612Y0147667D01*
X0048600Y0147637D01*
X0048600Y0147604D01*
X0048307Y0146898D01*
X0048026Y0146187D01*
X0048003Y0146164D01*
X0047991Y0146134D01*
X0047451Y0145594D01*
X0046919Y0145045D01*
X0046889Y0145032D01*
X0042866Y0141009D01*
X0041396Y0140400D01*
X0038157Y0140400D01*
X0036500Y0138743D01*
X0036500Y0134671D01*
X0036739Y0134432D01*
X0037500Y0132595D01*
X0037500Y0130605D01*
X0036739Y0128768D01*
X0035332Y0127361D01*
X0033495Y0126600D01*
X0031505Y0126600D01*
X0029668Y0125839D01*
X0028261Y0124432D01*
X0027500Y0122595D01*
X0027500Y0120605D01*
X0028261Y0118768D01*
X0028500Y0118529D01*
X0028500Y0112871D01*
X0028361Y0112732D01*
X0027600Y0110895D01*
X0027600Y0108905D01*
X0028361Y0107068D01*
X0029768Y0105661D01*
X0031605Y0104900D01*
X0033595Y0104900D01*
X0035432Y0105661D01*
X0036839Y0107068D01*
X0037600Y0108905D01*
X0037600Y0110895D01*
X0036839Y0112732D01*
X0036500Y0113071D01*
X0036500Y0118529D01*
X0036739Y0118768D01*
X0037500Y0120605D01*
X0037500Y0122595D01*
X0036739Y0124432D01*
X0035332Y0125839D01*
X0033495Y0126600D01*
X0031505Y0126600D01*
X0029668Y0127361D01*
X0028261Y0128768D01*
X0027500Y0130605D01*
X0027500Y0132595D01*
X0028261Y0134432D01*
X0028500Y0134671D01*
X0028500Y0141196D01*
X0029109Y0142666D01*
X0033060Y0146617D01*
X0031459Y0147280D01*
X0029949Y0148790D01*
X0029131Y0150764D01*
X0029131Y0158836D01*
X0029949Y0160810D01*
X0030500Y0161361D01*
X0030500Y0161796D01*
X0031109Y0163266D01*
X0031825Y0163982D01*
X0020336Y0163974D01*
X0021000Y0161496D01*
X0021000Y0158704D01*
X0020278Y0156009D01*
X0018882Y0153591D01*
X0016909Y0151618D01*
X0014491Y0150222D01*
X0011796Y0149500D01*
X0009004Y0149500D01*
X0007665Y0149859D01*
X0007490Y0051644D01*
X0007882Y0051772D01*
X0008691Y0051900D01*
X0009100Y0051900D01*
X0009100Y0046700D01*
X0009100Y0046700D01*
X0014300Y0046700D01*
X0014300Y0047109D01*
X0014172Y0047918D01*
X0013919Y0048696D01*
X0013547Y0049425D01*
X0013066Y0050088D01*
X0012488Y0050666D01*
X0011825Y0051147D01*
X0011096Y0051519D01*
X0010318Y0051772D01*
X0009509Y0051900D01*
X0009100Y0051900D01*
X0009100Y0046700D01*
X0009100Y0046700D01*
X0014300Y0046700D01*
X0014300Y0046291D01*
X0014172Y0045482D01*
X0013919Y0044704D01*
X0013547Y0043975D01*
X0013066Y0043312D01*
X0012488Y0042734D01*
X0011825Y0042253D01*
X0011096Y0041881D01*
X0010318Y0041628D01*
X0009509Y0041500D01*
X0009100Y0041500D01*
X0009100Y0046700D01*
X0009100Y0046700D01*
X0009100Y0041500D01*
X0008691Y0041500D01*
X0007882Y0041628D01*
X0007472Y0041761D01*
X0007454Y0031435D01*
X0008182Y0031672D01*
X0008991Y0031800D01*
X0009400Y0031800D01*
X0009400Y0026600D01*
X0009400Y0026600D01*
X0014600Y0026600D01*
X0014600Y0027009D01*
X0014472Y0027818D01*
X0014219Y0028596D01*
X0013847Y0029325D01*
X0013366Y0029988D01*
X0012788Y0030566D01*
X0012125Y0031047D01*
X0011396Y0031419D01*
X0010618Y0031672D01*
X0009809Y0031800D01*
X0009400Y0031800D01*
X0009400Y0026600D01*
X0009400Y0026600D01*
X0014600Y0026600D01*
X0014600Y0026191D01*
X0014472Y0025382D01*
X0014219Y0024604D01*
X0013847Y0023875D01*
X0013366Y0023212D01*
X0012788Y0022634D01*
X0012125Y0022153D01*
X0011396Y0021781D01*
X0011147Y0021700D01*
X0013196Y0021700D01*
X0015891Y0020978D01*
X0018309Y0019582D01*
X0020282Y0017609D01*
X0021678Y0015191D01*
X0022400Y0012496D01*
X0022400Y0009704D01*
X0021678Y0007009D01*
X0022400Y0009827D02*
X0145116Y0009827D01*
X0149200Y0011400D02*
X0238400Y0011400D01*
X0241200Y0014200D01*
X0241100Y0024350D01*
X0246110Y0027149D02*
X0245932Y0027579D01*
X0244329Y0029182D01*
X0242234Y0030050D01*
X0239966Y0030050D01*
X0237871Y0029182D01*
X0236268Y0027579D01*
X0236210Y0027440D01*
X0236132Y0027629D01*
X0235213Y0028548D01*
X0235200Y0029143D01*
X0235200Y0029896D01*
X0235183Y0029936D01*
X0235182Y0029981D01*
X0234879Y0030670D01*
X0234591Y0031366D01*
X0234560Y0031397D01*
X0234542Y0031437D01*
X0233998Y0031958D01*
X0228966Y0036991D01*
X0227496Y0037600D01*
X0201757Y0037600D01*
X0204866Y0040709D01*
X0205991Y0041834D01*
X0206600Y0043304D01*
X0206600Y0092500D01*
X0209162Y0092500D01*
X0224352Y0092215D01*
X0224372Y0092207D01*
X0225146Y0092200D01*
X0225921Y0092186D01*
X0225941Y0092194D01*
X0225963Y0092194D01*
X0226681Y0092484D01*
X0227402Y0092767D01*
X0227418Y0092782D01*
X0227438Y0092791D01*
X0227990Y0093333D01*
X0228548Y0093871D01*
X0228557Y0093891D01*
X0234165Y0099409D01*
X0234706Y0099911D01*
X0234730Y0099965D01*
X0234772Y0100007D01*
X0235061Y0100687D01*
X0235368Y0101358D01*
X0235370Y0101417D01*
X0235393Y0101472D01*
X0235399Y0102210D01*
X0235776Y0112462D01*
X0235842Y0112655D01*
X0235805Y0113252D01*
X0235826Y0113848D01*
X0235755Y0114040D01*
X0235346Y0120585D01*
X0235932Y0121171D01*
X0236018Y0121378D01*
X0236054Y0121308D01*
X0236600Y0120556D01*
X0237256Y0119900D01*
X0238008Y0119354D01*
X0238835Y0118932D01*
X0239718Y0118645D01*
X0240636Y0118500D01*
X0241100Y0118500D01*
X0241564Y0118500D01*
X0242482Y0118645D01*
X0243365Y0118932D01*
X0244192Y0119354D01*
X0244944Y0119900D01*
X0245600Y0120556D01*
X0246060Y0121189D01*
X0246068Y0121171D01*
X0247671Y0119568D01*
X0249766Y0118700D01*
X0252034Y0118700D01*
X0254129Y0119568D01*
X0255732Y0121171D01*
X0255850Y0121456D01*
X0255968Y0121171D01*
X0257571Y0119568D01*
X0259666Y0118700D01*
X0261934Y0118700D01*
X0264029Y0119568D01*
X0265632Y0121171D01*
X0266500Y0123266D01*
X0266500Y0125534D01*
X0265632Y0127629D01*
X0264029Y0129232D01*
X0261934Y0130100D01*
X0259666Y0130100D01*
X0257571Y0129232D01*
X0255968Y0127629D01*
X0255850Y0127344D01*
X0255732Y0127629D01*
X0254129Y0129232D01*
X0252034Y0130100D01*
X0249766Y0130100D01*
X0247671Y0129232D01*
X0246068Y0127629D01*
X0246060Y0127611D01*
X0245600Y0128244D01*
X0244944Y0128900D01*
X0244192Y0129446D01*
X0243365Y0129868D01*
X0242482Y0130155D01*
X0241564Y0130300D01*
X0241100Y0130300D01*
X0241100Y0124400D01*
X0241100Y0124400D01*
X0241100Y0130300D01*
X0240636Y0130300D01*
X0239718Y0130155D01*
X0238835Y0129868D01*
X0238008Y0129446D01*
X0237256Y0128900D01*
X0236600Y0128244D01*
X0236054Y0127492D01*
X0236018Y0127422D01*
X0235932Y0127629D01*
X0234329Y0129232D01*
X0232234Y0130100D01*
X0229966Y0130100D01*
X0227871Y0129232D01*
X0226268Y0127629D01*
X0226200Y0127465D01*
X0226132Y0127629D01*
X0224529Y0129232D01*
X0222434Y0130100D01*
X0220166Y0130100D01*
X0218071Y0129232D01*
X0216468Y0127629D01*
X0215600Y0125534D01*
X0215600Y0123266D01*
X0216468Y0121171D01*
X0218071Y0119568D01*
X0220166Y0118700D01*
X0222434Y0118700D01*
X0224529Y0119568D01*
X0226132Y0121171D01*
X0226200Y0121335D01*
X0226268Y0121171D01*
X0227362Y0120077D01*
X0227795Y0113148D01*
X0227461Y0104036D01*
X0223593Y0100231D01*
X0210032Y0100485D01*
X0209996Y0100500D01*
X0209237Y0100500D01*
X0208479Y0100514D01*
X0208443Y0100500D01*
X0202584Y0100500D01*
X0202078Y0100572D01*
X0201796Y0100500D01*
X0201504Y0100500D01*
X0201032Y0100304D01*
X0200537Y0100177D01*
X0200477Y0100133D01*
X0183751Y0100387D01*
X0183747Y0100389D01*
X0182956Y0100400D01*
X0182165Y0100412D01*
X0182161Y0100410D01*
X0175920Y0100490D01*
X0175896Y0100500D01*
X0175125Y0100500D01*
X0174356Y0100510D01*
X0174331Y0100500D01*
X0173400Y0100500D01*
X0173400Y0109100D01*
X0176896Y0109100D01*
X0178366Y0109709D01*
X0182266Y0113609D01*
X0183391Y0114734D01*
X0184000Y0116204D01*
X0184000Y0117567D01*
X0184366Y0117933D01*
X0185000Y0119463D01*
X0185634Y0117933D01*
X0187083Y0116484D01*
X0188976Y0115700D01*
X0191024Y0115700D01*
X0192917Y0116484D01*
X0194366Y0117933D01*
X0195150Y0119826D01*
X0195150Y0127374D01*
X0194366Y0129267D01*
X0192917Y0130716D01*
X0191024Y0131500D01*
X0188976Y0131500D01*
X0187083Y0130716D01*
X0185634Y0129267D01*
X0185000Y0127737D01*
X0184366Y0129267D01*
X0182917Y0130716D01*
X0181024Y0131500D01*
X0178976Y0131500D01*
X0177083Y0130716D01*
X0175634Y0129267D01*
X0175000Y0127737D01*
X0174366Y0129267D01*
X0174034Y0129599D01*
X0174163Y0152502D01*
X0174751Y0153090D01*
X0175087Y0153901D01*
X0175437Y0153213D01*
X0175953Y0152504D01*
X0176572Y0151884D01*
X0177281Y0151369D01*
X0178062Y0150971D01*
X0178896Y0150700D01*
X0179762Y0150563D01*
X0180200Y0150563D01*
X0180638Y0150563D01*
X0181504Y0150700D01*
X0182338Y0150971D01*
X0183119Y0151369D01*
X0183828Y0151884D01*
X0184447Y0152504D01*
X0184963Y0153213D01*
X0185361Y0153994D01*
X0185631Y0154828D01*
X0185768Y0155693D01*
X0185768Y0159100D01*
X0185768Y0162507D01*
X0185631Y0163372D01*
X0185397Y0164094D01*
X0260858Y0164149D01*
X0260318Y0163609D01*
X0258922Y0161191D01*
X0258200Y0158496D01*
X0258200Y0155704D01*
X0258922Y0153009D01*
X0260318Y0150591D01*
X0262291Y0148618D01*
X0264709Y0147222D01*
X0267404Y0146500D01*
X0270196Y0146500D01*
X0271928Y0146964D01*
X0272079Y0020015D01*
X0269896Y0020600D01*
X0267104Y0020600D01*
X0264450Y0019889D01*
X0265732Y0021171D01*
X0266600Y0023266D01*
X0266600Y0025534D01*
X0265732Y0027629D01*
X0264129Y0029232D01*
X0262034Y0030100D01*
X0259766Y0030100D01*
X0257671Y0029232D01*
X0256068Y0027629D01*
X0255979Y0027415D01*
X0255932Y0027529D01*
X0254329Y0029132D01*
X0252234Y0030000D01*
X0249966Y0030000D01*
X0247871Y0029132D01*
X0246268Y0027529D01*
X0246110Y0027149D01*
X0244493Y0029018D02*
X0247757Y0029018D01*
X0254443Y0029018D02*
X0257457Y0029018D01*
X0264343Y0029018D02*
X0272068Y0029018D01*
X0272072Y0025820D02*
X0266482Y0025820D01*
X0266333Y0022621D02*
X0272076Y0022621D01*
X0259854Y0016224D02*
X0245180Y0016224D01*
X0245149Y0019423D02*
X0247980Y0019423D01*
X0254220Y0019423D02*
X0258022Y0019423D01*
X0258337Y0013026D02*
X0245043Y0013026D01*
X0242484Y0009827D02*
X0257900Y0009827D01*
X0231300Y0024400D02*
X0231200Y0029100D01*
X0226700Y0033600D01*
X0160100Y0033600D01*
X0155600Y0029100D01*
X0155600Y0020100D01*
X0150600Y0019423D02*
X0150600Y0019423D01*
X0150600Y0022621D02*
X0150600Y0022621D01*
X0151600Y0025820D02*
X0149551Y0025820D01*
X0151600Y0029018D02*
X0112175Y0029018D01*
X0111649Y0025820D02*
X0109551Y0025820D01*
X0110600Y0022621D02*
X0110600Y0022621D01*
X0110600Y0019423D02*
X0110600Y0019423D01*
X0110483Y0016224D02*
X0110717Y0016224D01*
X0113337Y0013026D02*
X0107863Y0013026D01*
X0103337Y0013026D02*
X0097863Y0013026D01*
X0093337Y0013026D02*
X0087863Y0013026D01*
X0090483Y0016224D02*
X0090717Y0016224D01*
X0090600Y0016505D02*
X0090600Y0023695D01*
X0091361Y0025532D01*
X0092768Y0026939D01*
X0093157Y0027100D01*
X0088043Y0027100D01*
X0088432Y0026939D01*
X0089839Y0025532D01*
X0090600Y0023695D01*
X0090600Y0016505D01*
X0090600Y0019423D02*
X0090600Y0019423D01*
X0090600Y0022621D02*
X0090600Y0022621D01*
X0089551Y0025820D02*
X0091649Y0025820D01*
X0098043Y0027100D02*
X0103157Y0027100D01*
X0102768Y0026939D01*
X0101361Y0025532D01*
X0100600Y0023695D01*
X0100600Y0016505D01*
X0100600Y0023695D01*
X0099839Y0025532D01*
X0098432Y0026939D01*
X0098043Y0027100D01*
X0099551Y0025820D02*
X0101649Y0025820D01*
X0100600Y0022621D02*
X0100600Y0022621D01*
X0100600Y0019423D02*
X0100600Y0019423D01*
X0100483Y0016224D02*
X0100717Y0016224D01*
X0083337Y0013026D02*
X0077863Y0013026D01*
X0073337Y0013026D02*
X0067863Y0013026D01*
X0070483Y0016224D02*
X0070717Y0016224D01*
X0070600Y0016505D02*
X0070600Y0023695D01*
X0071361Y0025532D01*
X0072768Y0026939D01*
X0073157Y0027100D01*
X0068043Y0027100D01*
X0068432Y0026939D01*
X0069839Y0025532D01*
X0070600Y0023695D01*
X0070600Y0016505D01*
X0070600Y0019423D02*
X0070600Y0019423D01*
X0070600Y0022621D02*
X0070600Y0022621D01*
X0069551Y0025820D02*
X0071649Y0025820D01*
X0078043Y0027100D02*
X0083157Y0027100D01*
X0082768Y0026939D01*
X0081361Y0025532D01*
X0080600Y0023695D01*
X0080600Y0016505D01*
X0080600Y0023695D01*
X0079839Y0025532D01*
X0078432Y0026939D01*
X0078043Y0027100D01*
X0079551Y0025820D02*
X0081649Y0025820D01*
X0080600Y0022621D02*
X0080600Y0022621D01*
X0080600Y0019423D02*
X0080600Y0019423D01*
X0080483Y0016224D02*
X0080717Y0016224D01*
X0063337Y0013026D02*
X0022258Y0013026D01*
X0021081Y0016224D02*
X0060717Y0016224D01*
X0060600Y0019423D02*
X0018468Y0019423D01*
X0012770Y0022621D02*
X0026308Y0022621D01*
X0024400Y0025820D02*
X0014541Y0025820D01*
X0014004Y0029018D02*
X0024990Y0029018D01*
X0029400Y0026600D02*
X0044500Y0026500D01*
X0049100Y0031100D01*
X0108600Y0031100D01*
X0115600Y0038100D01*
X0115600Y0050100D01*
X0110600Y0051408D02*
X0110600Y0051408D01*
X0110600Y0048209D02*
X0110600Y0048209D01*
X0109981Y0045011D02*
X0111219Y0045011D01*
X0111600Y0041812D02*
X0106969Y0041812D01*
X0103771Y0038614D02*
X0110457Y0038614D01*
X0107258Y0035415D02*
X0007461Y0035415D01*
X0007455Y0032217D02*
X0044560Y0032217D01*
X0046729Y0038614D02*
X0007466Y0038614D01*
X0009100Y0041812D02*
X0009100Y0041812D01*
X0010884Y0041812D02*
X0027835Y0041812D01*
X0030365Y0041812D02*
X0043531Y0041812D01*
X0044500Y0046500D02*
X0049400Y0041600D01*
X0101100Y0041600D01*
X0105600Y0046100D01*
X0105600Y0050100D01*
X0100600Y0051408D02*
X0100600Y0051408D01*
X0095600Y0050100D02*
X0095600Y0060100D01*
X0091800Y0064000D01*
X0066100Y0064100D01*
X0062600Y0067600D01*
X0061900Y0070100D01*
X0066900Y0070599D02*
X0070214Y0070599D01*
X0075400Y0070599D02*
X0075400Y0070599D01*
X0075400Y0073797D02*
X0075400Y0073797D01*
X0071743Y0073797D02*
X0065274Y0073797D01*
X0058526Y0073797D02*
X0049257Y0073797D01*
X0048988Y0074066D02*
X0048325Y0074547D01*
X0047596Y0074919D01*
X0046818Y0075172D01*
X0046009Y0075300D01*
X0045600Y0075300D01*
X0045600Y0070100D01*
X0045600Y0070100D01*
X0050800Y0070100D01*
X0050800Y0070509D01*
X0050672Y0071318D01*
X0050419Y0072096D01*
X0050047Y0072825D01*
X0049566Y0073488D01*
X0048988Y0074066D01*
X0045600Y0073797D02*
X0045600Y0073797D01*
X0045600Y0075300D02*
X0045191Y0075300D01*
X0044382Y0075172D01*
X0043604Y0074919D01*
X0042875Y0074547D01*
X0042212Y0074066D01*
X0041634Y0073488D01*
X0041153Y0072825D01*
X0040781Y0072096D01*
X0040528Y0071318D01*
X0040400Y0070509D01*
X0040400Y0070100D01*
X0045600Y0070100D01*
X0045600Y0070100D01*
X0045600Y0070100D01*
X0045600Y0075300D01*
X0041943Y0073797D02*
X0035774Y0073797D01*
X0037600Y0070599D02*
X0040414Y0070599D01*
X0040400Y0070100D02*
X0040400Y0069691D01*
X0040528Y0068882D01*
X0040781Y0068104D01*
X0041153Y0067375D01*
X0041634Y0066712D01*
X0042212Y0066134D01*
X0042875Y0065653D01*
X0043604Y0065281D01*
X0044382Y0065028D01*
X0045191Y0064900D01*
X0045600Y0064900D01*
X0046009Y0064900D01*
X0046818Y0065028D01*
X0047596Y0065281D01*
X0048325Y0065653D01*
X0048988Y0066134D01*
X0049566Y0066712D01*
X0050047Y0067375D01*
X0050419Y0068104D01*
X0050672Y0068882D01*
X0050800Y0069691D01*
X0050800Y0070100D01*
X0045600Y0070100D01*
X0045600Y0064900D01*
X0045600Y0070100D01*
X0045600Y0070100D01*
X0040400Y0070100D01*
X0041139Y0067400D02*
X0036977Y0067400D01*
X0037555Y0064202D02*
X0060341Y0064202D01*
X0057606Y0067400D02*
X0050060Y0067400D01*
X0045600Y0067400D02*
X0045600Y0067400D01*
X0045600Y0070599D02*
X0045600Y0070599D01*
X0050786Y0070599D02*
X0056900Y0070599D01*
X0037500Y0058600D02*
X0082100Y0058600D01*
X0085600Y0055100D01*
X0085600Y0050100D01*
X0100600Y0048209D02*
X0100600Y0048209D01*
X0100222Y0054606D02*
X0100978Y0054606D01*
X0099600Y0057805D02*
X0124589Y0057805D01*
X0125600Y0057805D02*
X0125600Y0057805D01*
X0126611Y0057805D02*
X0148838Y0057805D01*
X0150222Y0054606D02*
X0150978Y0054606D01*
X0150600Y0051408D02*
X0150600Y0051408D01*
X0150600Y0048209D02*
X0150600Y0048209D01*
X0149981Y0045011D02*
X0151219Y0045011D01*
X0155600Y0050100D02*
X0155500Y0050200D01*
X0155500Y0056800D01*
X0148900Y0063400D01*
X0108400Y0063400D01*
X0101700Y0070100D01*
X0091100Y0070100D01*
X0087726Y0073797D02*
X0079057Y0073797D01*
X0080586Y0070599D02*
X0086100Y0070599D01*
X0097188Y0064202D02*
X0101941Y0064202D01*
X0099555Y0061003D02*
X0105140Y0061003D01*
X0110222Y0054606D02*
X0110978Y0054606D01*
X0120222Y0054606D02*
X0120752Y0054606D01*
X0125600Y0054606D02*
X0125600Y0054606D01*
X0125600Y0051408D02*
X0125600Y0051408D01*
X0125600Y0048209D02*
X0125600Y0048209D01*
X0125600Y0045011D02*
X0125600Y0045011D01*
X0121032Y0045011D02*
X0119981Y0045011D01*
X0119600Y0041812D02*
X0132231Y0041812D01*
X0135429Y0038614D02*
X0119600Y0038614D01*
X0118572Y0035415D02*
X0156258Y0035415D01*
X0153060Y0032217D02*
X0115373Y0032217D01*
X0121361Y0025532D02*
X0122768Y0026939D01*
X0124605Y0027700D01*
X0126595Y0027700D01*
X0128432Y0026939D01*
X0129839Y0025532D01*
X0130522Y0023882D01*
X0130528Y0023918D01*
X0130781Y0024696D01*
X0131153Y0025425D01*
X0131634Y0026088D01*
X0132212Y0026666D01*
X0132875Y0027147D01*
X0133604Y0027519D01*
X0134382Y0027772D01*
X0135191Y0027900D01*
X0135600Y0027900D01*
X0135600Y0020100D01*
X0135600Y0020100D01*
X0135600Y0012300D01*
X0135191Y0012300D01*
X0134382Y0012428D01*
X0133604Y0012681D01*
X0132875Y0013053D01*
X0132212Y0013534D01*
X0131634Y0014112D01*
X0131153Y0014775D01*
X0130781Y0015504D01*
X0130528Y0016282D01*
X0130522Y0016318D01*
X0129839Y0014668D01*
X0128432Y0013261D01*
X0126595Y0012500D01*
X0124605Y0012500D01*
X0122768Y0013261D01*
X0121361Y0014668D01*
X0120600Y0016505D01*
X0120600Y0023695D01*
X0121361Y0025532D01*
X0121649Y0025820D02*
X0119551Y0025820D01*
X0120600Y0022621D02*
X0120600Y0022621D01*
X0120600Y0019423D02*
X0120600Y0019423D01*
X0120483Y0016224D02*
X0120717Y0016224D01*
X0123337Y0013026D02*
X0117863Y0013026D01*
X0127863Y0013026D02*
X0132928Y0013026D01*
X0135600Y0013026D02*
X0135600Y0013026D01*
X0138272Y0013026D02*
X0142088Y0013026D01*
X0145600Y0015000D02*
X0149200Y0011400D01*
X0145600Y0015000D02*
X0145600Y0020100D01*
X0150483Y0016224D02*
X0150717Y0016224D01*
X0140717Y0016224D02*
X0140653Y0016224D01*
X0135600Y0016224D02*
X0135600Y0016224D01*
X0135600Y0019423D02*
X0135600Y0019423D01*
X0135600Y0022621D02*
X0135600Y0022621D01*
X0135600Y0025820D02*
X0135600Y0025820D01*
X0139761Y0025820D02*
X0141649Y0025820D01*
X0131439Y0025820D02*
X0129551Y0025820D01*
X0130483Y0016224D02*
X0130547Y0016224D01*
X0139600Y0040100D02*
X0198600Y0040100D01*
X0202600Y0044100D01*
X0202600Y0096100D01*
X0202300Y0096500D01*
X0209200Y0096500D01*
X0225200Y0096200D01*
X0231400Y0102300D01*
X0231800Y0113200D01*
X0231100Y0124400D01*
X0235389Y0128172D02*
X0236548Y0128172D01*
X0241100Y0128172D02*
X0241100Y0128172D01*
X0241100Y0124973D02*
X0241100Y0124973D01*
X0241100Y0124400D02*
X0241100Y0118500D01*
X0241100Y0124400D01*
X0241100Y0124400D01*
X0241100Y0121775D02*
X0241100Y0121775D01*
X0241100Y0118576D02*
X0241100Y0118576D01*
X0242047Y0118576D02*
X0271962Y0118576D01*
X0271965Y0115378D02*
X0235672Y0115378D01*
X0235765Y0112179D02*
X0271969Y0112179D01*
X0271973Y0108981D02*
X0235648Y0108981D01*
X0235530Y0105782D02*
X0271977Y0105782D01*
X0271981Y0102584D02*
X0235413Y0102584D01*
X0234141Y0099385D02*
X0271984Y0099385D01*
X0271988Y0096187D02*
X0230890Y0096187D01*
X0227639Y0092988D02*
X0271992Y0092988D01*
X0271996Y0089790D02*
X0206600Y0089790D01*
X0206600Y0086591D02*
X0272000Y0086591D01*
X0272003Y0083393D02*
X0206600Y0083393D01*
X0206600Y0080194D02*
X0272007Y0080194D01*
X0272011Y0076996D02*
X0206600Y0076996D01*
X0206600Y0073797D02*
X0272015Y0073797D01*
X0272019Y0070599D02*
X0206600Y0070599D01*
X0206600Y0067400D02*
X0272022Y0067400D01*
X0272026Y0064202D02*
X0206600Y0064202D01*
X0206600Y0061003D02*
X0272030Y0061003D01*
X0272034Y0057805D02*
X0206600Y0057805D01*
X0206600Y0054606D02*
X0272038Y0054606D01*
X0272041Y0051408D02*
X0206600Y0051408D01*
X0206600Y0048209D02*
X0272045Y0048209D01*
X0272049Y0045011D02*
X0206600Y0045011D01*
X0205969Y0041812D02*
X0272053Y0041812D01*
X0272057Y0038614D02*
X0202770Y0038614D01*
X0204866Y0040709D02*
X0204866Y0040709D01*
X0217700Y0028100D02*
X0221400Y0024400D01*
X0217700Y0028100D02*
X0169300Y0028100D01*
X0165600Y0024400D01*
X0165600Y0020100D01*
X0139600Y0040100D02*
X0135600Y0044100D01*
X0135600Y0050100D01*
X0140600Y0051408D02*
X0140600Y0051408D01*
X0140600Y0048209D02*
X0140600Y0048209D01*
X0140346Y0045011D02*
X0141219Y0045011D01*
X0131219Y0045011D02*
X0130168Y0045011D01*
X0130448Y0054606D02*
X0130978Y0054606D01*
X0140222Y0054606D02*
X0140978Y0054606D01*
X0152100Y0069000D02*
X0159700Y0061400D01*
X0170400Y0061400D01*
X0175600Y0056200D01*
X0175600Y0050100D01*
X0185600Y0050100D02*
X0185600Y0066300D01*
X0180800Y0071100D01*
X0157700Y0071100D01*
X0149100Y0079700D01*
X0149100Y0081100D01*
X0144287Y0086591D02*
X0143913Y0086591D01*
X0139100Y0081100D02*
X0139100Y0072200D01*
X0142300Y0069000D01*
X0152100Y0069000D01*
X0138243Y0067400D02*
X0110057Y0067400D01*
X0106858Y0070599D02*
X0135434Y0070599D01*
X0135100Y0073797D02*
X0132434Y0073797D01*
X0125766Y0073797D02*
X0103226Y0073797D01*
X0123712Y0076996D02*
X0007535Y0076996D01*
X0007529Y0073797D02*
X0012843Y0073797D01*
X0013112Y0074066D02*
X0012534Y0073488D01*
X0012053Y0072825D01*
X0011681Y0072096D01*
X0011428Y0071318D01*
X0011300Y0070509D01*
X0011300Y0070100D01*
X0016500Y0070100D01*
X0016500Y0070100D01*
X0016500Y0075300D01*
X0016909Y0075300D01*
X0017718Y0075172D01*
X0018496Y0074919D01*
X0019225Y0074547D01*
X0019888Y0074066D01*
X0020466Y0073488D01*
X0020947Y0072825D01*
X0021319Y0072096D01*
X0021572Y0071318D01*
X0021700Y0070509D01*
X0021700Y0070100D01*
X0016500Y0070100D01*
X0016500Y0070100D01*
X0016500Y0070100D01*
X0016500Y0075300D01*
X0016091Y0075300D01*
X0015282Y0075172D01*
X0014504Y0074919D01*
X0013775Y0074547D01*
X0013112Y0074066D01*
X0016500Y0073797D02*
X0016500Y0073797D01*
X0016500Y0070599D02*
X0016500Y0070599D01*
X0016500Y0070100D02*
X0011300Y0070100D01*
X0011300Y0069691D01*
X0011428Y0068882D01*
X0011681Y0068104D01*
X0012053Y0067375D01*
X0012534Y0066712D01*
X0013112Y0066134D01*
X0013775Y0065653D01*
X0014504Y0065281D01*
X0015282Y0065028D01*
X0016091Y0064900D01*
X0016500Y0064900D01*
X0016909Y0064900D01*
X0017718Y0065028D01*
X0018496Y0065281D01*
X0019225Y0065653D01*
X0019888Y0066134D01*
X0020466Y0066712D01*
X0020947Y0067375D01*
X0021319Y0068104D01*
X0021572Y0068882D01*
X0021700Y0069691D01*
X0021700Y0070100D01*
X0016500Y0070100D01*
X0016500Y0064900D01*
X0016500Y0070100D01*
X0016500Y0070100D01*
X0011314Y0070599D02*
X0007523Y0070599D01*
X0007518Y0067400D02*
X0012039Y0067400D01*
X0016500Y0067400D02*
X0016500Y0067400D01*
X0020960Y0067400D02*
X0028223Y0067400D01*
X0032600Y0069900D02*
X0032500Y0063600D01*
X0037500Y0058600D01*
X0036689Y0054606D02*
X0007495Y0054606D01*
X0007501Y0057805D02*
X0032638Y0057805D01*
X0029440Y0061003D02*
X0007506Y0061003D01*
X0007512Y0064202D02*
X0028500Y0064202D01*
X0027600Y0070599D02*
X0021686Y0070599D01*
X0020157Y0073797D02*
X0029426Y0073797D01*
X0007541Y0080194D02*
X0123700Y0080194D01*
X0123700Y0083393D02*
X0007546Y0083393D01*
X0007552Y0086591D02*
X0124287Y0086591D01*
X0133913Y0086591D02*
X0134287Y0086591D01*
X0153913Y0086591D02*
X0154084Y0086591D01*
X0159100Y0086591D02*
X0159100Y0086591D01*
X0159100Y0083393D02*
X0159100Y0083393D01*
X0164116Y0086591D02*
X0164287Y0086591D01*
X0165645Y0089790D02*
X0007558Y0089790D01*
X0007563Y0092988D02*
X0165400Y0092988D01*
X0165400Y0096187D02*
X0007569Y0096187D01*
X0007575Y0099385D02*
X0165400Y0099385D01*
X0165400Y0102584D02*
X0157740Y0102584D01*
X0156500Y0106400D02*
X0160800Y0110700D01*
X0160800Y0113200D01*
X0160900Y0113100D01*
X0169400Y0113100D01*
X0169400Y0096500D01*
X0175100Y0096500D01*
X0182900Y0096400D01*
X0202600Y0096100D01*
X0225985Y0102584D02*
X0173400Y0102584D01*
X0173400Y0105782D02*
X0227525Y0105782D01*
X0227642Y0108981D02*
X0173400Y0108981D01*
X0176100Y0113100D02*
X0169400Y0113100D01*
X0165400Y0108981D02*
X0164417Y0108981D01*
X0165400Y0105782D02*
X0161539Y0105782D01*
X0156500Y0106400D02*
X0151100Y0106400D01*
X0160800Y0113200D02*
X0160800Y0117400D01*
X0160600Y0117600D01*
X0160600Y0125100D01*
X0160100Y0125600D01*
X0151300Y0125600D01*
X0151100Y0125800D01*
X0146100Y0125800D02*
X0146100Y0120100D01*
X0142100Y0116100D01*
X0103600Y0116100D01*
X0103100Y0115600D01*
X0103100Y0106300D01*
X0106455Y0102584D02*
X0109745Y0102584D01*
X0108100Y0105782D02*
X0108100Y0105782D01*
X0107401Y0108981D02*
X0108799Y0108981D01*
X0113100Y0106300D02*
X0113200Y0106400D01*
X0136100Y0106400D01*
X0133123Y0120100D02*
X0107100Y0120100D01*
X0107100Y0128403D01*
X0108314Y0129616D01*
X0109250Y0131877D01*
X0109250Y0134323D01*
X0108314Y0136584D01*
X0107100Y0137797D01*
X0107100Y0146396D01*
X0106491Y0147866D01*
X0105366Y0148991D01*
X0100866Y0153491D01*
X0099396Y0154100D01*
X0084577Y0154100D01*
X0085346Y0155957D01*
X0085346Y0158243D01*
X0084472Y0160355D01*
X0083366Y0161461D01*
X0082991Y0162366D01*
X0081339Y0164018D01*
X0165222Y0164079D01*
X0164831Y0163136D01*
X0164831Y0159940D01*
X0163432Y0161339D01*
X0161595Y0162100D01*
X0159605Y0162100D01*
X0157768Y0161339D01*
X0156361Y0159932D01*
X0155600Y0158095D01*
X0155600Y0156105D01*
X0156361Y0154268D01*
X0156600Y0154029D01*
X0156600Y0129600D01*
X0154600Y0129600D01*
X0154600Y0130177D01*
X0154235Y0131059D01*
X0153559Y0131735D01*
X0152677Y0132100D01*
X0149523Y0132100D01*
X0148641Y0131735D01*
X0148600Y0131694D01*
X0148559Y0131735D01*
X0147677Y0132100D01*
X0145100Y0132100D01*
X0145100Y0144396D01*
X0144491Y0145866D01*
X0143366Y0146991D01*
X0138866Y0151491D01*
X0137396Y0152100D01*
X0126257Y0152100D01*
X0124600Y0153757D01*
X0124600Y0154029D01*
X0124839Y0154268D01*
X0125600Y0156105D01*
X0125600Y0158095D01*
X0124839Y0159932D01*
X0123432Y0161339D01*
X0121595Y0162100D01*
X0119605Y0162100D01*
X0117768Y0161339D01*
X0117529Y0161100D01*
X0113727Y0161100D01*
X0112855Y0161972D01*
X0110743Y0162846D01*
X0108457Y0162846D01*
X0106345Y0161972D01*
X0104728Y0160355D01*
X0103854Y0158243D01*
X0103854Y0155957D01*
X0104728Y0153845D01*
X0106345Y0152228D01*
X0108457Y0151354D01*
X0110743Y0151354D01*
X0112855Y0152228D01*
X0113727Y0153100D01*
X0116600Y0153100D01*
X0116600Y0151304D01*
X0117209Y0149834D01*
X0121209Y0145834D01*
X0122334Y0144709D01*
X0123804Y0144100D01*
X0134943Y0144100D01*
X0137100Y0141943D01*
X0137100Y0132300D01*
X0136100Y0132300D01*
X0136100Y0125800D01*
X0136100Y0125800D01*
X0136100Y0125800D01*
X0132400Y0125800D01*
X0132400Y0129956D01*
X0132500Y0130458D01*
X0132696Y0130932D01*
X0132980Y0131357D01*
X0133343Y0131720D01*
X0133768Y0132004D01*
X0134242Y0132200D01*
X0134744Y0132300D01*
X0136100Y0132300D01*
X0136100Y0125800D01*
X0132400Y0125800D01*
X0132400Y0121644D01*
X0132500Y0121142D01*
X0132696Y0120668D01*
X0132980Y0120243D01*
X0133123Y0120100D01*
X0132400Y0121775D02*
X0107100Y0121775D01*
X0107100Y0124973D02*
X0132400Y0124973D01*
X0132400Y0128172D02*
X0127120Y0128172D01*
X0127237Y0128256D02*
X0127944Y0128963D01*
X0128531Y0129772D01*
X0128985Y0130662D01*
X0129294Y0131613D01*
X0129450Y0132600D01*
X0129450Y0133100D01*
X0129450Y0133600D01*
X0129294Y0134587D01*
X0128985Y0135538D01*
X0128531Y0136428D01*
X0127944Y0137237D01*
X0127237Y0137944D01*
X0126428Y0138531D01*
X0125538Y0138985D01*
X0124587Y0139294D01*
X0123600Y0139450D01*
X0123100Y0139450D01*
X0123100Y0133100D01*
X0129450Y0133100D01*
X0123100Y0133100D01*
X0123100Y0133100D01*
X0123100Y0133100D01*
X0123100Y0126750D01*
X0123600Y0126750D01*
X0124587Y0126906D01*
X0125538Y0127215D01*
X0126428Y0127669D01*
X0127237Y0128256D01*
X0129215Y0131370D02*
X0132994Y0131370D01*
X0136100Y0131370D02*
X0136100Y0131370D01*
X0137100Y0134569D02*
X0129296Y0134569D01*
X0127413Y0137768D02*
X0137100Y0137768D01*
X0137100Y0140966D02*
X0107100Y0140966D01*
X0107100Y0144165D02*
X0123649Y0144165D01*
X0124600Y0148100D02*
X0136600Y0148100D01*
X0141100Y0143600D01*
X0141100Y0125800D01*
X0136100Y0128172D02*
X0136100Y0128172D01*
X0145100Y0134569D02*
X0156600Y0134569D01*
X0156600Y0131370D02*
X0153924Y0131370D01*
X0156600Y0137768D02*
X0145100Y0137768D01*
X0145100Y0140966D02*
X0156600Y0140966D01*
X0156600Y0144165D02*
X0145100Y0144165D01*
X0142994Y0147363D02*
X0156600Y0147363D01*
X0156600Y0150562D02*
X0139795Y0150562D01*
X0124600Y0148100D02*
X0120600Y0152100D01*
X0120600Y0157100D01*
X0109600Y0157100D01*
X0103854Y0156959D02*
X0085346Y0156959D01*
X0084554Y0160157D02*
X0104646Y0160157D01*
X0104813Y0153760D02*
X0100216Y0153760D01*
X0098600Y0150100D02*
X0103100Y0145600D01*
X0103100Y0133100D01*
X0103100Y0115600D01*
X0099100Y0115378D02*
X0095000Y0115378D01*
X0095651Y0112179D02*
X0099100Y0112179D01*
X0098799Y0108981D02*
X0096048Y0108981D01*
X0098100Y0105782D02*
X0093742Y0105782D01*
X0091100Y0110100D02*
X0091000Y0110200D01*
X0091000Y0121000D01*
X0095408Y0118576D02*
X0099100Y0118576D01*
X0099100Y0121775D02*
X0096000Y0121775D01*
X0094098Y0124973D02*
X0099100Y0124973D01*
X0099100Y0128172D02*
X0095241Y0128172D01*
X0091000Y0131000D02*
X0091000Y0139600D01*
X0087000Y0143600D01*
X0068600Y0143600D01*
X0064600Y0147600D01*
X0064500Y0154800D01*
X0060600Y0147363D02*
X0058500Y0147363D01*
X0058500Y0144165D02*
X0062379Y0144165D01*
X0065577Y0140966D02*
X0058500Y0140966D01*
X0058500Y0137768D02*
X0087000Y0137768D01*
X0087000Y0134569D02*
X0065702Y0134569D01*
X0066900Y0131370D02*
X0086000Y0131370D01*
X0086759Y0128172D02*
X0065843Y0128172D01*
X0061900Y0131300D02*
X0061800Y0131200D01*
X0057200Y0131200D01*
X0054500Y0133900D01*
X0054500Y0154800D01*
X0050500Y0147363D02*
X0048500Y0147363D01*
X0050500Y0144165D02*
X0046021Y0144165D01*
X0044600Y0148400D02*
X0044500Y0154800D01*
X0034500Y0154800D02*
X0034500Y0161000D01*
X0037300Y0163800D01*
X0075900Y0163800D01*
X0079600Y0160100D01*
X0079600Y0157100D01*
X0079600Y0152600D01*
X0082100Y0150100D01*
X0098600Y0150100D01*
X0103795Y0150562D02*
X0116908Y0150562D01*
X0119680Y0147363D02*
X0106699Y0147363D01*
X0098879Y0144165D02*
X0092092Y0144165D01*
X0094764Y0140966D02*
X0099100Y0140966D01*
X0099070Y0137768D02*
X0095000Y0137768D01*
X0095000Y0134569D02*
X0097052Y0134569D01*
X0097160Y0131370D02*
X0096000Y0131370D01*
X0087902Y0124973D02*
X0084098Y0124973D01*
X0083832Y0125239D02*
X0081995Y0126000D01*
X0080005Y0126000D01*
X0078168Y0125239D01*
X0076761Y0123832D01*
X0076000Y0121995D01*
X0076000Y0120005D01*
X0076761Y0118168D01*
X0077000Y0117929D01*
X0077000Y0117357D01*
X0074743Y0115100D01*
X0074405Y0115100D01*
X0072568Y0114339D01*
X0071161Y0112932D01*
X0070400Y0111095D01*
X0070400Y0109105D01*
X0071161Y0107268D01*
X0072568Y0105861D01*
X0074405Y0105100D01*
X0076395Y0105100D01*
X0078232Y0105861D01*
X0079639Y0107268D01*
X0080400Y0109105D01*
X0080400Y0109443D01*
X0084391Y0113434D01*
X0085000Y0114904D01*
X0085000Y0117929D01*
X0085239Y0118168D01*
X0086000Y0120005D01*
X0086000Y0121995D01*
X0085239Y0123832D01*
X0083832Y0125239D01*
X0086000Y0121775D02*
X0086000Y0121775D01*
X0085408Y0118576D02*
X0086592Y0118576D01*
X0087000Y0115378D02*
X0085000Y0115378D01*
X0086549Y0112179D02*
X0083136Y0112179D01*
X0081000Y0115700D02*
X0075400Y0110100D01*
X0070452Y0108981D02*
X0066848Y0108981D01*
X0061900Y0110100D02*
X0061800Y0110600D01*
X0061900Y0121300D01*
X0066900Y0121775D02*
X0076000Y0121775D01*
X0081000Y0121000D02*
X0081000Y0115700D01*
X0076592Y0118576D02*
X0066184Y0118576D01*
X0065845Y0115378D02*
X0075021Y0115378D01*
X0070849Y0112179D02*
X0066451Y0112179D01*
X0057349Y0112179D02*
X0053336Y0112179D01*
X0055763Y0115378D02*
X0057844Y0115378D01*
X0057616Y0118576D02*
X0056184Y0118576D01*
X0056900Y0121775D02*
X0056900Y0121775D01*
X0055298Y0124973D02*
X0058502Y0124973D01*
X0054571Y0128172D02*
X0036143Y0128172D01*
X0036198Y0124973D02*
X0048502Y0124973D01*
X0046900Y0121775D02*
X0037500Y0121775D01*
X0036548Y0118576D02*
X0047616Y0118576D01*
X0045221Y0115378D02*
X0036500Y0115378D01*
X0037068Y0112179D02*
X0041049Y0112179D01*
X0040652Y0108981D02*
X0037600Y0108981D01*
X0035553Y0105782D02*
X0042958Y0105782D01*
X0045600Y0110100D02*
X0051800Y0116300D01*
X0051900Y0121300D01*
X0065298Y0124973D02*
X0077902Y0124973D01*
X0080348Y0108981D02*
X0086152Y0108981D01*
X0088458Y0105782D02*
X0078042Y0105782D01*
X0072758Y0105782D02*
X0064542Y0105782D01*
X0059258Y0105782D02*
X0048242Y0105782D01*
X0050548Y0108981D02*
X0056952Y0108981D01*
X0032600Y0109900D02*
X0032500Y0110000D01*
X0032500Y0121600D01*
X0027500Y0121775D02*
X0027500Y0121775D01*
X0027500Y0122595D02*
X0027500Y0120605D01*
X0026739Y0118768D01*
X0026445Y0118474D01*
X0026400Y0115964D01*
X0026400Y0115204D01*
X0026386Y0115170D01*
X0026385Y0115133D01*
X0026082Y0114436D01*
X0025791Y0113734D01*
X0025765Y0113708D01*
X0025750Y0113674D01*
X0025203Y0113146D01*
X0021500Y0109443D01*
X0021500Y0109105D01*
X0020739Y0107268D01*
X0019332Y0105861D01*
X0017495Y0105100D01*
X0015505Y0105100D01*
X0013668Y0105861D01*
X0012261Y0107268D01*
X0011500Y0109105D01*
X0011500Y0111095D01*
X0012261Y0112932D01*
X0013668Y0114339D01*
X0015505Y0115100D01*
X0015843Y0115100D01*
X0018429Y0117686D01*
X0018445Y0118583D01*
X0018261Y0118768D01*
X0017500Y0120605D01*
X0017500Y0122595D01*
X0018261Y0124432D01*
X0019668Y0125839D01*
X0021505Y0126600D01*
X0023495Y0126600D01*
X0025332Y0125839D01*
X0026739Y0124432D01*
X0027500Y0122595D01*
X0026198Y0124973D02*
X0028802Y0124973D01*
X0028857Y0128172D02*
X0007626Y0128172D01*
X0007632Y0131370D02*
X0027500Y0131370D01*
X0028398Y0134569D02*
X0007638Y0134569D01*
X0007643Y0137768D02*
X0028500Y0137768D01*
X0028500Y0140966D02*
X0007649Y0140966D01*
X0007655Y0144165D02*
X0030608Y0144165D01*
X0031376Y0147363D02*
X0007660Y0147363D01*
X0015079Y0150562D02*
X0029215Y0150562D01*
X0029131Y0153760D02*
X0018979Y0153760D01*
X0020532Y0156959D02*
X0029131Y0156959D01*
X0029679Y0160157D02*
X0021000Y0160157D01*
X0020502Y0163356D02*
X0031199Y0163356D01*
X0044600Y0148400D02*
X0040600Y0144400D01*
X0036500Y0144400D01*
X0032500Y0140400D01*
X0032500Y0131600D01*
X0037500Y0131370D02*
X0051373Y0131370D01*
X0050500Y0134569D02*
X0036602Y0134569D01*
X0036500Y0137768D02*
X0050500Y0137768D01*
X0050500Y0140966D02*
X0042762Y0140966D01*
X0018802Y0124973D02*
X0007620Y0124973D01*
X0007615Y0121775D02*
X0017500Y0121775D01*
X0018445Y0118576D02*
X0007609Y0118576D01*
X0007603Y0115378D02*
X0016121Y0115378D01*
X0011949Y0112179D02*
X0007598Y0112179D01*
X0007592Y0108981D02*
X0011552Y0108981D01*
X0016500Y0110100D02*
X0022400Y0116000D01*
X0022500Y0121600D01*
X0026547Y0118576D02*
X0028452Y0118576D01*
X0028500Y0115378D02*
X0026400Y0115378D01*
X0028132Y0112179D02*
X0024236Y0112179D01*
X0021448Y0108981D02*
X0027600Y0108981D01*
X0029647Y0105782D02*
X0019142Y0105782D01*
X0013858Y0105782D02*
X0007586Y0105782D01*
X0007580Y0102584D02*
X0099745Y0102584D01*
X0118963Y0128256D02*
X0119772Y0127669D01*
X0120662Y0127215D01*
X0121613Y0126906D01*
X0122600Y0126750D01*
X0123100Y0126750D01*
X0123100Y0133100D01*
X0123100Y0133100D01*
X0123100Y0133100D01*
X0116750Y0133100D01*
X0116750Y0133600D01*
X0116906Y0134587D01*
X0117215Y0135538D01*
X0117669Y0136428D01*
X0118256Y0137237D01*
X0118963Y0137944D01*
X0119772Y0138531D01*
X0120662Y0138985D01*
X0121613Y0139294D01*
X0122600Y0139450D01*
X0123100Y0139450D01*
X0123100Y0133100D01*
X0116750Y0133100D01*
X0116750Y0132600D01*
X0116906Y0131613D01*
X0117215Y0130662D01*
X0117669Y0129772D01*
X0118256Y0128963D01*
X0118963Y0128256D01*
X0119080Y0128172D02*
X0107100Y0128172D01*
X0109040Y0131370D02*
X0116985Y0131370D01*
X0116904Y0134569D02*
X0109148Y0134569D01*
X0107130Y0137768D02*
X0118787Y0137768D01*
X0123100Y0137768D02*
X0123100Y0137768D01*
X0123100Y0134569D02*
X0123100Y0134569D01*
X0123100Y0131370D02*
X0123100Y0131370D01*
X0123100Y0128172D02*
X0123100Y0128172D01*
X0124600Y0153760D02*
X0156600Y0153760D01*
X0155600Y0156959D02*
X0125600Y0156959D01*
X0124614Y0160157D02*
X0156586Y0160157D01*
X0160600Y0157100D02*
X0160600Y0125100D01*
X0170000Y0123600D02*
X0170200Y0159100D01*
X0164831Y0160157D02*
X0164614Y0160157D01*
X0164922Y0163356D02*
X0082001Y0163356D01*
X0174152Y0150562D02*
X0260348Y0150562D01*
X0258721Y0153760D02*
X0185241Y0153760D01*
X0185768Y0156959D02*
X0258200Y0156959D01*
X0258645Y0160157D02*
X0185768Y0160157D01*
X0185768Y0159100D02*
X0180200Y0159100D01*
X0180200Y0159100D01*
X0185768Y0159100D01*
X0180200Y0159100D02*
X0180200Y0150563D01*
X0180200Y0159100D01*
X0180200Y0159100D01*
X0180200Y0156959D02*
X0180200Y0156959D01*
X0180200Y0153760D02*
X0180200Y0153760D01*
X0175159Y0153760D02*
X0175029Y0153760D01*
X0174134Y0147363D02*
X0264465Y0147363D01*
X0271931Y0144165D02*
X0174116Y0144165D01*
X0174098Y0140966D02*
X0271935Y0140966D01*
X0271939Y0137768D02*
X0174080Y0137768D01*
X0174062Y0134569D02*
X0271943Y0134569D01*
X0271946Y0131370D02*
X0191337Y0131370D01*
X0188663Y0131370D02*
X0181337Y0131370D01*
X0178663Y0131370D02*
X0174044Y0131370D01*
X0174820Y0128172D02*
X0175180Y0128172D01*
X0180000Y0123600D02*
X0180000Y0117000D01*
X0176100Y0113100D01*
X0180836Y0112179D02*
X0227760Y0112179D01*
X0227656Y0115378D02*
X0183658Y0115378D01*
X0184633Y0118576D02*
X0185367Y0118576D01*
X0194633Y0118576D02*
X0227456Y0118576D01*
X0235472Y0118576D02*
X0240153Y0118576D01*
X0245652Y0128172D02*
X0246611Y0128172D01*
X0255189Y0128172D02*
X0256511Y0128172D01*
X0265089Y0128172D02*
X0271950Y0128172D01*
X0271954Y0124973D02*
X0266500Y0124973D01*
X0265882Y0121775D02*
X0271958Y0121775D01*
X0226811Y0128172D02*
X0225589Y0128172D01*
X0217011Y0128172D02*
X0194820Y0128172D01*
X0195150Y0124973D02*
X0215600Y0124973D01*
X0216218Y0121775D02*
X0195150Y0121775D01*
X0185180Y0128172D02*
X0184820Y0128172D01*
X0169400Y0096500D02*
X0169400Y0092100D01*
X0169800Y0092100D01*
X0169100Y0081100D01*
X0230542Y0035415D02*
X0272060Y0035415D01*
X0272064Y0032217D02*
X0233740Y0032217D01*
X0235203Y0029018D02*
X0237707Y0029018D01*
X0061649Y0025820D02*
X0051300Y0025820D01*
X0049326Y0022621D02*
X0060600Y0022621D01*
X0024388Y0045011D02*
X0014019Y0045011D01*
X0009100Y0045011D02*
X0009100Y0045011D01*
X0009100Y0048209D02*
X0009100Y0048209D01*
X0009100Y0051408D02*
X0009100Y0051408D01*
X0011315Y0051408D02*
X0027400Y0051408D01*
X0030800Y0051408D02*
X0060600Y0051408D01*
X0060600Y0048209D02*
X0050971Y0048209D01*
X0044500Y0046500D02*
X0029100Y0046700D01*
X0024313Y0048209D02*
X0014077Y0048209D01*
X0009400Y0029018D02*
X0009400Y0029018D01*
X0185634Y0163356D02*
X0260172Y0163356D01*
M02*
